{
    "asset" : {
        "generator" : "Khronos glTF Blender I/O v3.2.43",
        "version" : "2.0"
    },
    "scene" : 0,
    "scenes" : [
        {
            "name" : "Scene",
            "nodes" : [
                0,
                1
            ]
        }
    ],
    "nodes" : [
        {
            "mesh" : 0,
            "name" : "Cube"
        },
        {
            "mesh" : 1,
            "name" : "Cube.002"
        }
    ],
    "materials" : [
        {
            "doubleSided" : true,
            "name" : "Material.002",
            "pbrMetallicRoughness" : {
                "baseColorTexture" : {
                    "index" : 0
                },
                "metallicFactor" : 0,
                "roughnessFactor" : 0.5
            }
        }
    ],
    "meshes" : [
        {
            "name" : "Cube.001",
            "primitives" : [
                {
                    "attributes" : {
                        "POSITION" : 0,
                        "NORMAL" : 1,
                        "TEXCOORD_0" : 2
                    },
                    "indices" : 3,
                    "material" : 0
                }
            ]
        },
        {
            "name" : "Cube.003",
            "primitives" : [
                {
                    "attributes" : {
                        "POSITION" : 4,
                        "NORMAL" : 5,
                        "TEXCOORD_0" : 6
                    },
                    "indices" : 7,
                    "material" : 0
                }
            ]
        }
    ],
    "textures" : [
        {
            "sampler" : 0,
            "source" : 0
        }
    ],
    "images" : [
        {
            "mimeType" : "image/jpeg",
            "name" : "bed A",
            "uri" : "bed%20A.jpg"
        }
    ],
    "accessors" : [
        {
            "bufferView" : 0,
            "componentType" : 5126,
            "count" : 196,
            "max" : [
                2.1935629844665527,
                3.200104236602783,
                0.7855561971664429
            ],
            "min" : [
                -2.618643283843994,
                0.016315579414367676,
                -0.9042124152183533
            ],
            "type" : "VEC3"
        },
        {
            "bufferView" : 1,
            "componentType" : 5126,
            "count" : 196,
            "type" : "VEC3"
        },
        {
            "bufferView" : 2,
            "componentType" : 5126,
            "count" : 196,
            "type" : "VEC2"
        },
        {
            "bufferView" : 3,
            "componentType" : 5123,
            "count" : 324,
            "type" : "SCALAR"
        },
        {
            "bufferView" : 4,
            "componentType" : 5126,
            "count" : 96,
            "max" : [
                2.4061012268066406,
                1.7550101280212402,
                0.7940916419029236
            ],
            "min" : [
                -2.4061055183410645,
                0.016052842140197754,
                -0.895676851272583
            ],
            "type" : "VEC3"
        },
        {
            "bufferView" : 5,
            "componentType" : 5126,
            "count" : 96,
            "type" : "VEC3"
        },
        {
            "bufferView" : 6,
            "componentType" : 5126,
            "count" : 96,
            "type" : "VEC2"
        },
        {
            "bufferView" : 7,
            "componentType" : 5123,
            "count" : 168,
            "type" : "SCALAR"
        }
    ],
    "bufferViews" : [
        {
            "buffer" : 0,
            "byteLength" : 2352,
            "byteOffset" : 0
        },
        {
            "buffer" : 0,
            "byteLength" : 2352,
            "byteOffset" : 2352
        },
        {
            "buffer" : 0,
            "byteLength" : 1568,
            "byteOffset" : 4704
        },
        {
            "buffer" : 0,
            "byteLength" : 648,
            "byteOffset" : 6272
        },
        {
            "buffer" : 0,
            "byteLength" : 1152,
            "byteOffset" : 6920
        },
        {
            "buffer" : 0,
            "byteLength" : 1152,
            "byteOffset" : 8072
        },
        {
            "buffer" : 0,
            "byteLength" : 768,
            "byteOffset" : 9224
        },
        {
            "buffer" : 0,
            "byteLength" : 336,
            "byteOffset" : 9992
        }
    ],
    "samplers" : [
        {
            "magFilter" : 9728,
            "minFilter" : 9984
        }
    ],
    "buffers" : [
        {
            "byteLength" : 10328,
            "uri" : "beds.bin"
        }
    ]
}
