{
    "asset" : {
        "generator" : "Khronos glTF Blender I/O v3.2.43",
        "version" : "2.0"
    },
    "scene" : 0,
    "scenes" : [
        {
            "name" : "Scene",
            "nodes" : [
                0
            ]
        }
    ],
    "nodes" : [
        {
            "mesh" : 0,
            "name" : "screen"
        }
    ],
    "materials" : [
        {
            "doubleSided" : true,
            "name" : "case",
            "pbrMetallicRoughness" : {}
        },
        {
            "doubleSided" : true,
            "emissiveFactor" : [
                1,
                1,
                1
            ],
            "emissiveTexture" : {
                "index" : 0
            },
            "name" : "screen_blank",
            "pbrMetallicRoughness" : {
                "baseColorFactor" : [
                    0,
                    0,
                    0,
                    1
                ]
            }
        }
    ],
    "meshes" : [
        {
            "name" : "screen_mesh",
            "primitives" : [
                {
                    "attributes" : {
                        "POSITION" : 0,
                        "NORMAL" : 1,
                        "TEXCOORD_0" : 2
                    },
                    "indices" : 3,
                    "material" : 0
                },
                {
                    "attributes" : {
                        "POSITION" : 4,
                        "NORMAL" : 5,
                        "TEXCOORD_0" : 6
                    },
                    "indices" : 7,
                    "material" : 1
                }
            ]
        }
    ],
    "textures" : [
        {
            "sampler" : 0,
            "source" : 0
        }
    ],
    "images" : [
        {
            "mimeType" : "image/png",
            "name" : "screen_blank",
            "uri" : "screen_blank.png"
        }
    ],
    "accessors" : [
        {
            "bufferView" : 0,
            "componentType" : 5126,
            "count" : 50,
            "max" : [
                0.5,
                0.28125,
                0.05000000074505806
            ],
            "min" : [
                -0.5,
                -0.28125,
                -0.05000000074505806
            ],
            "type" : "VEC3"
        },
        {
            "bufferView" : 1,
            "componentType" : 5126,
            "count" : 50,
            "type" : "VEC3"
        },
        {
            "bufferView" : 2,
            "componentType" : 5126,
            "count" : 50,
            "type" : "VEC2"
        },
        {
            "bufferView" : 3,
            "componentType" : 5123,
            "count" : 78,
            "type" : "SCALAR"
        },
        {
            "bufferView" : 4,
            "componentType" : 5126,
            "count" : 4,
            "max" : [
                0.49000000953674316,
                0.27125000953674316,
                0.03999999910593033
            ],
            "min" : [
                -0.49000000953674316,
                -0.27125000953674316,
                0.03999999910593033
            ],
            "type" : "VEC3"
        },
        {
            "bufferView" : 5,
            "componentType" : 5126,
            "count" : 4,
            "type" : "VEC3"
        },
        {
            "bufferView" : 6,
            "componentType" : 5126,
            "count" : 4,
            "type" : "VEC2"
        },
        {
            "bufferView" : 7,
            "componentType" : 5123,
            "count" : 6,
            "type" : "SCALAR"
        }
    ],
    "bufferViews" : [
        {
            "buffer" : 0,
            "byteLength" : 600,
            "byteOffset" : 0
        },
        {
            "buffer" : 0,
            "byteLength" : 600,
            "byteOffset" : 600
        },
        {
            "buffer" : 0,
            "byteLength" : 400,
            "byteOffset" : 1200
        },
        {
            "buffer" : 0,
            "byteLength" : 156,
            "byteOffset" : 1600
        },
        {
            "buffer" : 0,
            "byteLength" : 48,
            "byteOffset" : 1756
        },
        {
            "buffer" : 0,
            "byteLength" : 48,
            "byteOffset" : 1804
        },
        {
            "buffer" : 0,
            "byteLength" : 32,
            "byteOffset" : 1852
        },
        {
            "buffer" : 0,
            "byteLength" : 12,
            "byteOffset" : 1884
        }
    ],
    "samplers" : [
        {
            "magFilter" : 9729,
            "minFilter" : 9987
        }
    ],
    "buffers" : [
        {
            "byteLength" : 1896,
            "uri" : "screen.bin"
        }
    ]
}
