{
    "asset" : {
        "generator" : "Khronos glTF Blender I/O v3.2.43",
        "version" : "2.0"
    },
    "scene" : 0,
    "scenes" : [
        {
            "name" : "Scene",
            "nodes" : [
                24
            ]
        }
    ],
    "nodes" : [
        {
            "mesh" : 0,
            "name" : "Cube.005",
            "scale" : [
                8.617267608642578,
                8.617267608642578,
                8.617267608642578
            ],
            "translation" : [
                0,
                -4.506105899810791,
                0
            ]
        },
        {
            "name" : "Bone.004",
            "rotation" : [
                0.011987521313130856,
                1.1920072040538798e-07,
                1.4290233441016653e-09,
                0.9999282360076904
            ],
            "scale" : [
                0.9999999403953552,
                0.9999999403953552,
                0.9999999403953552
            ],
            "translation" : [
                -1.9852334701272664e-23,
                0.2684893012046814,
                -1.4901161193847656e-08
            ]
        },
        {
            "children" : [
                1
            ],
            "name" : "Bone.003",
            "rotation" : [
                0.1361101269721985,
                -5.791931883986101e-17,
                -9.464447705854543e-17,
                0.9906938076019287
            ],
            "scale" : [
                1,
                0.9999999403953552,
                1
            ],
            "translation" : [
                1.1580528575742387e-23,
                0.9416003823280334,
                5.21540641784668e-08
            ]
        },
        {
            "name" : "Hand.L",
            "rotation" : [
                -0.03656748682260513,
                -0.0006461605662479997,
                -0.030776087194681168,
                0.9988569617271423
            ],
            "translation" : [
                -2.477318048477173e-07,
                1.4113372564315796,
                1.4901161193847656e-08
            ]
        },
        {
            "children" : [
                3
            ],
            "name" : "Arm.001.L",
            "rotation" : [
                0.025696296244859695,
                0.001551175839267671,
                0.05311204120516777,
                0.9982567429542542
            ],
            "scale" : [
                1,
                1,
                0.9999998807907104
            ],
            "translation" : [
                2.0489096641540527e-08,
                1.3705495595932007,
                1.2014061212539673e-07
            ]
        },
        {
            "children" : [
                4
            ],
            "name" : "Arm.L",
            "rotation" : [
                0.15482287108898163,
                -0.007169138640165329,
                0.011247468180954456,
                0.9878522157669067
            ],
            "scale" : [
                1.0000001192092896,
                1,
                0.9999999403953552
            ],
            "translation" : [
                7.599592208862305e-07,
                0.7507228851318359,
                -1.4901161193847656e-08
            ]
        },
        {
            "children" : [
                5
            ],
            "name" : "Shoulder.L",
            "rotation" : [
                -0.11209679394960403,
                0.10844241082668304,
                -0.7348170280456543,
                0.6600897908210754
            ],
            "scale" : [
                1,
                0.9999999403953552,
                1
            ],
            "translation" : [
                1.1580528575742387e-23,
                0.9416003823280334,
                5.21540641784668e-08
            ]
        },
        {
            "name" : "Hand.R",
            "rotation" : [
                -0.03656748682260513,
                0.0006461605662479997,
                0.030776087194681168,
                0.9988569617271423
            ],
            "translation" : [
                2.477318048477173e-07,
                1.4113372564315796,
                1.4901161193847656e-08
            ]
        },
        {
            "children" : [
                7
            ],
            "name" : "Arm.001.R",
            "rotation" : [
                0.025696296244859695,
                -0.001551175839267671,
                -0.05311204120516777,
                0.9982567429542542
            ],
            "scale" : [
                1,
                1,
                0.9999998807907104
            ],
            "translation" : [
                -2.0489096641540527e-08,
                1.3705495595932007,
                1.2014061212539673e-07
            ]
        },
        {
            "children" : [
                8
            ],
            "name" : "Arm.R",
            "rotation" : [
                0.15482287108898163,
                0.007169138640165329,
                -0.011247468180954456,
                0.9878522157669067
            ],
            "scale" : [
                1.0000001192092896,
                1,
                0.9999999403953552
            ],
            "translation" : [
                -7.599592208862305e-07,
                0.7507228851318359,
                -1.4901161193847656e-08
            ]
        },
        {
            "children" : [
                9
            ],
            "name" : "Shoulder.R",
            "rotation" : [
                -0.11209679394960403,
                -0.10844241082668304,
                0.7348170280456543,
                0.6600897908210754
            ],
            "scale" : [
                1,
                0.9999999403953552,
                1
            ],
            "translation" : [
                -6.439989909787669e-16,
                0.9416003823280334,
                5.21540641784668e-08
            ]
        },
        {
            "children" : [
                2,
                6,
                10
            ],
            "name" : "Bone.002",
            "rotation" : [
                -0.09988019615411758,
                1.2487674392472141e-17,
                3.418231898891271e-17,
                0.9949994683265686
            ],
            "translation" : [
                2.183756817139993e-22,
                0.6545863151550293,
                3.026798367500305e-09
            ]
        },
        {
            "children" : [
                11
            ],
            "name" : "Bone.001",
            "rotation" : [
                -0.09046673029661179,
                -1.2771197495741837e-16,
                -1.0268253517785802e-16,
                0.995899498462677
            ],
            "translation" : [
                2.0679515313825692e-24,
                1.002793312072754,
                -8.940696716308594e-08
            ]
        },
        {
            "children" : [
                12
            ],
            "name" : "Bone",
            "rotation" : [
                0.11009357869625092,
                2.695171157018253e-18,
                2.695171157018253e-18,
                0.9939212203025818
            ],
            "translation" : [
                0,
                4.76837158203125e-07,
                0
            ]
        },
        {
            "name" : "Foot.001.L",
            "rotation" : [
                -0.0011139132548123598,
                4.4975838164873494e-08,
                -0.3678572177886963,
                0.9298816323280334
            ],
            "scale" : [
                1,
                1,
                0.9999999403953552
            ],
            "translation" : [
                7.939524948596954e-08,
                0.4694196581840515,
                2.208980731666088e-08
            ]
        },
        {
            "children" : [
                14
            ],
            "name" : "Foot.L",
            "rotation" : [
                -0.018322058022022247,
                -0.007848083972930908,
                -0.341386079788208,
                0.9397118091583252
            ],
            "translation" : [
                -1.2114469427615404e-09,
                2.046342611312866,
                -4.7813955461606383e-08
            ]
        },
        {
            "children" : [
                15
            ],
            "name" : "Leg.001.L",
            "rotation" : [
                0.04041093587875366,
                -0.00013472550199367106,
                -0.00016074131417553872,
                0.9991832375526428
            ],
            "scale" : [
                1,
                0.9999999403953552,
                0.9999999403953552
            ],
            "translation" : [
                -1.6450940165668726e-08,
                1.9227230548858643,
                7.630660547874868e-09
            ]
        },
        {
            "children" : [
                16
            ],
            "name" : "Leg.L",
            "rotation" : [
                -0.7172485589981079,
                0.09670449048280716,
                -0.07580775767564774,
                0.6858978867530823
            ],
            "translation" : [
                0,
                0.5109777450561523,
                7.450580596923828e-09
            ]
        },
        {
            "children" : [
                17
            ],
            "name" : "Hip.L",
            "rotation" : [
                -0.5614797472953796,
                -0.4404699504375458,
                -0.42981448769569397,
                0.5531601905822754
            ],
            "scale" : [
                1,
                0.9999999403953552,
                1
            ],
            "translation" : [
                0,
                4.76837158203125e-07,
                0
            ]
        },
        {
            "name" : "Foot.001.R",
            "rotation" : [
                -0.0011139132548123598,
                -4.4975838164873494e-08,
                0.3678572177886963,
                0.9298816323280334
            ],
            "scale" : [
                1,
                1,
                0.9999999403953552
            ],
            "translation" : [
                -7.939524948596954e-08,
                0.4694196581840515,
                2.208980731666088e-08
            ]
        },
        {
            "children" : [
                19
            ],
            "name" : "Foot.R",
            "rotation" : [
                -0.018322058022022247,
                0.007848083972930908,
                0.341386079788208,
                0.9397118091583252
            ],
            "translation" : [
                1.2114469427615404e-09,
                2.046342611312866,
                -4.7813955461606383e-08
            ]
        },
        {
            "children" : [
                20
            ],
            "name" : "Leg.001.R",
            "rotation" : [
                0.04041093587875366,
                0.00013472550199367106,
                0.00016074131417553872,
                0.9991832375526428
            ],
            "scale" : [
                1,
                0.9999999403953552,
                0.9999999403953552
            ],
            "translation" : [
                1.6450940165668726e-08,
                1.9227230548858643,
                7.630660547874868e-09
            ]
        },
        {
            "children" : [
                21
            ],
            "name" : "Leg.R",
            "rotation" : [
                -0.7172485589981079,
                -0.09670449048280716,
                0.07580775767564774,
                0.6858978867530823
            ],
            "translation" : [
                0,
                0.5109777450561523,
                7.450580596923828e-09
            ]
        },
        {
            "children" : [
                22
            ],
            "name" : "Hip.R",
            "rotation" : [
                -0.5614797472953796,
                0.4404699504375458,
                0.42981448769569397,
                0.5531601905822754
            ],
            "scale" : [
                1,
                0.9999999403953552,
                1
            ],
            "translation" : [
                0,
                4.76837158203125e-07,
                0
            ]
        },
        {
            "children" : [
                0,
                13,
                18,
                23
            ],
            "name" : "Armature",
            "scale" : [
                0.11604607105255127,
                0.11604607105255127,
                0.11604607105255127
            ],
            "translation" : [
                0,
                0.5229158997535706,
                0
            ]
        }
    ],
    "materials" : [
        {
            "doubleSided" : true,
            "name" : "Material.010",
            "pbrMetallicRoughness" : {
                "baseColorTexture" : {
                    "index" : 0
                },
                "metallicFactor" : 0,
                "roughnessFactor" : 0
            }
        }
    ],
    "meshes" : [
        {
            "name" : "Cube.011",
            "primitives" : [
                {
                    "attributes" : {
                        "POSITION" : 0,
                        "NORMAL" : 1,
                        "TEXCOORD_0" : 2
                    },
                    "indices" : 3,
                    "material" : 0
                }
            ]
        }
    ],
    "textures" : [
        {
            "sampler" : 0,
            "source" : 0
        }
    ],
    "images" : [
        {
            "mimeType" : "image/jpeg",
            "name" : "Corpse",
            "uri" : "Corpse.jpg"
        }
    ],
    "accessors" : [
        {
            "bufferView" : 0,
            "componentType" : 5126,
            "count" : 1672,
            "max" : [
                0.4182279109954834,
                0.15678060054779053,
                0.523094654083252
            ],
            "min" : [
                -0.34119027853012085,
                -0.01501774787902832,
                -0.4905710518360138
            ],
            "type" : "VEC3"
        },
        {
            "bufferView" : 1,
            "componentType" : 5126,
            "count" : 1672,
            "type" : "VEC3"
        },
        {
            "bufferView" : 2,
            "componentType" : 5126,
            "count" : 1672,
            "type" : "VEC2"
        },
        {
            "bufferView" : 3,
            "componentType" : 5123,
            "count" : 7950,
            "type" : "SCALAR"
        }
    ],
    "bufferViews" : [
        {
            "buffer" : 0,
            "byteLength" : 20064,
            "byteOffset" : 0
        },
        {
            "buffer" : 0,
            "byteLength" : 20064,
            "byteOffset" : 20064
        },
        {
            "buffer" : 0,
            "byteLength" : 13376,
            "byteOffset" : 40128
        },
        {
            "buffer" : 0,
            "byteLength" : 15900,
            "byteOffset" : 53504
        }
    ],
    "samplers" : [
        {
            "magFilter" : 9728,
            "minFilter" : 9984
        }
    ],
    "buffers" : [
        {
            "byteLength" : 69404,
            "uri" : "body.bin"
        }
    ]
}
