{
    "asset" : {
        "generator" : "Khronos glTF Blender I/O v3.2.43",
        "version" : "2.0"
    },
    "scene" : 0,
    "scenes" : [
        {
            "name" : "Scene",
            "nodes" : [
                0
            ]
        }
    ],
    "nodes" : [
        {
            "mesh" : 0,
            "name" : "surface"
        }
    ],
    "materials" : [
        {
            "name" : "surface_material",
            "normalTexture" : {
                "index" : 0
            },
            "occlusionTexture" : {
                "index" : 1
            },
            "pbrMetallicRoughness" : {
                "baseColorTexture" : {
                    "index" : 2
                },
                "metallicFactor" : 0
            }
        }
    ],
    "meshes" : [
        {
            "name" : "surface_mesh",
            "primitives" : [
                {
                    "attributes" : {
                        "POSITION" : 0,
                        "NORMAL" : 1,
                        "TEXCOORD_0" : 2
                    },
                    "indices" : 3,
                    "material" : 0
                }
            ]
        }
    ],
    "textures" : [
        {
            "sampler" : 0,
            "source" : 0
        },
        {
            "sampler" : 0,
            "source" : 1
        },
        {
            "sampler" : 0,
            "source" : 2
        }
    ],
    "images" : [
        {
            "mimeType" : "image/png",
            "name" : "surface_normal",
            "uri" : "surface_normal.png"
        },
        {
            "mimeType" : "image/png",
            "name" : "surface_ao",
            "uri" : "surface_ao.png"
        },
        {
            "mimeType" : "image/png",
            "name" : "surface_color",
            "uri" : "surface_color.png"
        }
    ],
    "accessors" : [
        {
            "bufferView" : 0,
            "componentType" : 5126,
            "count" : 503049,
            "max" : [
                5.000000476837158,
                0.23659604787826538,
                5.000000953674316
            ],
            "min" : [
                -5.000000476837158,
                -0.25,
                -5.000000476837158
            ],
            "type" : "VEC3"
        },
        {
            "bufferView" : 1,
            "componentType" : 5126,
            "count" : 503049,
            "type" : "VEC3"
        },
        {
            "bufferView" : 2,
            "componentType" : 5126,
            "count" : 503049,
            "type" : "VEC2"
        },
        {
            "bufferView" : 3,
            "componentType" : 5125,
            "count" : 2973696,
            "type" : "SCALAR"
        }
    ],
    "bufferViews" : [
        {
            "buffer" : 0,
            "byteLength" : 6036588,
            "byteOffset" : 0
        },
        {
            "buffer" : 0,
            "byteLength" : 6036588,
            "byteOffset" : 6036588
        },
        {
            "buffer" : 0,
            "byteLength" : 4024392,
            "byteOffset" : 12073176
        },
        {
            "buffer" : 0,
            "byteLength" : 11894784,
            "byteOffset" : 16097568
        }
    ],
    "samplers" : [
        {
            "magFilter" : 9729,
            "minFilter" : 9987
        }
    ],
    "buffers" : [
        {
            "byteLength" : 27992352,
            "uri" : "surface.bin"
        }
    ]
}
