{
    "asset" : {
        "generator" : "Khronos glTF Blender I/O v3.2.43",
        "version" : "2.0"
    },
    "scene" : 0,
    "scenes" : [
        {
            "name" : "Scene",
            "nodes" : [
                0,
                1,
                2,
                3,
                4,
                5,
                6
            ]
        }
    ],
    "nodes" : [
        {
            "mesh" : 0,
            "name" : "Cube"
        },
        {
            "mesh" : 1,
            "name" : "Cube.002"
        },
        {
            "mesh" : 2,
            "name" : "Plane"
        },
        {
            "mesh" : 3,
            "name" : "Plane.001"
        },
        {
            "mesh" : 4,
            "name" : "Plane.002"
        },
        {
            "mesh" : 5,
            "name" : "Plane.003"
        },
        {
            "mesh" : 6,
            "name" : "BezierCurve.002"
        }
    ],
    "materials" : [
        {
            "doubleSided" : true,
            "name" : "Material.002",
            "pbrMetallicRoughness" : {
                "baseColorTexture" : {
                    "index" : 0
                },
                "metallicFactor" : 0,
                "roughnessFactor" : 0.5
            }
        },
        {
            "doubleSided" : true,
            "name" : "Material.006",
            "pbrMetallicRoughness" : {
                "baseColorTexture" : {
                    "index" : 1
                },
                "metallicFactor" : 0,
                "roughnessFactor" : 0.5
            }
        },
        {
            "doubleSided" : true,
            "name" : "Material.005",
            "pbrMetallicRoughness" : {
                "baseColorTexture" : {
                    "index" : 2
                },
                "metallicFactor" : 0,
                "roughnessFactor" : 0
            }
        },
        {
            "doubleSided" : true,
            "name" : "Material.003",
            "pbrMetallicRoughness" : {
                "baseColorTexture" : {
                    "index" : 3
                },
                "metallicFactor" : 0,
                "roughnessFactor" : 0
            }
        },
        {
            "doubleSided" : true,
            "name" : "Material.001",
            "pbrMetallicRoughness" : {
                "baseColorTexture" : {
                    "index" : 4
                },
                "metallicFactor" : 0,
                "roughnessFactor" : 0
            }
        }
    ],
    "meshes" : [
        {
            "name" : "Cube.001",
            "primitives" : [
                {
                    "attributes" : {
                        "POSITION" : 0,
                        "NORMAL" : 1,
                        "TEXCOORD_0" : 2
                    },
                    "indices" : 3,
                    "material" : 0
                }
            ]
        },
        {
            "name" : "Cube.003",
            "primitives" : [
                {
                    "attributes" : {
                        "POSITION" : 4,
                        "NORMAL" : 5,
                        "TEXCOORD_0" : 6
                    },
                    "indices" : 7,
                    "material" : 0
                }
            ]
        },
        {
            "name" : "Plane",
            "primitives" : [
                {
                    "attributes" : {
                        "POSITION" : 8,
                        "NORMAL" : 9,
                        "TEXCOORD_0" : 10
                    },
                    "indices" : 11,
                    "material" : 1
                }
            ]
        },
        {
            "name" : "Plane.001",
            "primitives" : [
                {
                    "attributes" : {
                        "POSITION" : 12,
                        "NORMAL" : 13,
                        "TEXCOORD_0" : 14
                    },
                    "indices" : 15,
                    "material" : 2
                }
            ]
        },
        {
            "name" : "Plane.002",
            "primitives" : [
                {
                    "attributes" : {
                        "POSITION" : 16,
                        "NORMAL" : 17,
                        "TEXCOORD_0" : 18
                    },
                    "indices" : 19,
                    "material" : 2
                }
            ]
        },
        {
            "name" : "Plane.003",
            "primitives" : [
                {
                    "attributes" : {
                        "POSITION" : 20,
                        "NORMAL" : 21,
                        "TEXCOORD_0" : 22
                    },
                    "indices" : 23,
                    "material" : 3
                }
            ]
        },
        {
            "name" : "BezierCurve.002",
            "primitives" : [
                {
                    "attributes" : {
                        "POSITION" : 24,
                        "NORMAL" : 25,
                        "TEXCOORD_0" : 26
                    },
                    "indices" : 27,
                    "material" : 4
                }
            ]
        }
    ],
    "textures" : [
        {
            "sampler" : 0,
            "source" : 0
        },
        {
            "sampler" : 0,
            "source" : 1
        },
        {
            "sampler" : 0,
            "source" : 2
        },
        {
            "sampler" : 0,
            "source" : 3
        },
        {
            "sampler" : 0,
            "source" : 4
        }
    ],
    "images" : [
        {
            "mimeType" : "image/jpeg",
            "name" : "bed A",
            "uri" : "bed%20A.jpg"
        },
        {
            "mimeType" : "image/jpeg",
            "name" : "Bench",
            "uri" : "Bench.jpg"
        },
        {
            "mimeType" : "image/jpeg",
            "name" : "Table A",
            "uri" : "Table%20A.jpg"
        },
        {
            "mimeType" : "image/jpeg",
            "name" : "Chair",
            "uri" : "Chair.jpg"
        },
        {
            "mimeType" : "image/jpeg",
            "name" : "Machinery",
            "uri" : "Machinery.jpg"
        }
    ],
    "accessors" : [
        {
            "bufferView" : 0,
            "componentType" : 5126,
            "count" : 196,
            "max" : [
                2.1935629844665527,
                3.200104236602783,
                0.7855561971664429
            ],
            "min" : [
                -2.618643283843994,
                0.016315579414367676,
                -0.9042124152183533
            ],
            "type" : "VEC3"
        },
        {
            "bufferView" : 1,
            "componentType" : 5126,
            "count" : 196,
            "type" : "VEC3"
        },
        {
            "bufferView" : 2,
            "componentType" : 5126,
            "count" : 196,
            "type" : "VEC2"
        },
        {
            "bufferView" : 3,
            "componentType" : 5123,
            "count" : 324,
            "type" : "SCALAR"
        },
        {
            "bufferView" : 4,
            "componentType" : 5126,
            "count" : 96,
            "max" : [
                2.4061012268066406,
                1.7550101280212402,
                0.7940916419029236
            ],
            "min" : [
                -2.4061055183410645,
                0.016052842140197754,
                -0.895676851272583
            ],
            "type" : "VEC3"
        },
        {
            "bufferView" : 5,
            "componentType" : 5126,
            "count" : 96,
            "type" : "VEC3"
        },
        {
            "bufferView" : 6,
            "componentType" : 5126,
            "count" : 96,
            "type" : "VEC2"
        },
        {
            "bufferView" : 7,
            "componentType" : 5123,
            "count" : 168,
            "type" : "SCALAR"
        },
        {
            "bufferView" : 8,
            "componentType" : 5126,
            "count" : 535,
            "max" : [
                1.864147424697876,
                1.7083783149719238,
                0.8936911225318909
            ],
            "min" : [
                -1.8641412258148193,
                4.470348358154297e-06,
                -0.8936910033226013
            ],
            "type" : "VEC3"
        },
        {
            "bufferView" : 9,
            "componentType" : 5126,
            "count" : 535,
            "type" : "VEC3"
        },
        {
            "bufferView" : 10,
            "componentType" : 5126,
            "count" : 535,
            "type" : "VEC2"
        },
        {
            "bufferView" : 11,
            "componentType" : 5123,
            "count" : 1866,
            "type" : "SCALAR"
        },
        {
            "bufferView" : 12,
            "componentType" : 5126,
            "count" : 249,
            "max" : [
                2.131169319152832,
                1.428553581237793,
                0.8203856945037842
            ],
            "min" : [
                -2.130117893218994,
                0.006154537200927734,
                -1.019020438194275
            ],
            "type" : "VEC3"
        },
        {
            "bufferView" : 13,
            "componentType" : 5126,
            "count" : 249,
            "type" : "VEC3"
        },
        {
            "bufferView" : 14,
            "componentType" : 5126,
            "count" : 249,
            "type" : "VEC2"
        },
        {
            "bufferView" : 15,
            "componentType" : 5123,
            "count" : 576,
            "type" : "SCALAR"
        },
        {
            "bufferView" : 16,
            "componentType" : 5126,
            "count" : 310,
            "max" : [
                2.1311731338500977,
                1.437813401222229,
                0.7506985664367676
            ],
            "min" : [
                -2.1301145553588867,
                0.01541435718536377,
                -1.0887075662612915
            ],
            "type" : "VEC3"
        },
        {
            "bufferView" : 17,
            "componentType" : 5126,
            "count" : 310,
            "type" : "VEC3"
        },
        {
            "bufferView" : 18,
            "componentType" : 5126,
            "count" : 310,
            "type" : "VEC2"
        },
        {
            "bufferView" : 19,
            "componentType" : 5123,
            "count" : 648,
            "type" : "SCALAR"
        },
        {
            "bufferView" : 20,
            "componentType" : 5126,
            "count" : 206,
            "max" : [
                0.5923748016357422,
                1.6908395290374756,
                0.8080946207046509
            ],
            "min" : [
                -0.5951757431030273,
                0.0014549493789672852,
                -0.4025850296020508
            ],
            "type" : "VEC3"
        },
        {
            "bufferView" : 21,
            "componentType" : 5126,
            "count" : 206,
            "type" : "VEC3"
        },
        {
            "bufferView" : 22,
            "componentType" : 5126,
            "count" : 206,
            "type" : "VEC2"
        },
        {
            "bufferView" : 23,
            "componentType" : 5123,
            "count" : 660,
            "type" : "SCALAR"
        },
        {
            "bufferView" : 24,
            "componentType" : 5126,
            "count" : 1978,
            "max" : [
                0.8879314064979553,
                3.5156612396240234,
                0.5826653242111206
            ],
            "min" : [
                -1.838167428970337,
                -0.081739641726017,
                -0.6039074659347534
            ],
            "type" : "VEC3"
        },
        {
            "bufferView" : 25,
            "componentType" : 5126,
            "count" : 1978,
            "type" : "VEC3"
        },
        {
            "bufferView" : 26,
            "componentType" : 5126,
            "count" : 1978,
            "type" : "VEC2"
        },
        {
            "bufferView" : 27,
            "componentType" : 5123,
            "count" : 3024,
            "type" : "SCALAR"
        }
    ],
    "bufferViews" : [
        {
            "buffer" : 0,
            "byteLength" : 2352,
            "byteOffset" : 0
        },
        {
            "buffer" : 0,
            "byteLength" : 2352,
            "byteOffset" : 2352
        },
        {
            "buffer" : 0,
            "byteLength" : 1568,
            "byteOffset" : 4704
        },
        {
            "buffer" : 0,
            "byteLength" : 648,
            "byteOffset" : 6272
        },
        {
            "buffer" : 0,
            "byteLength" : 1152,
            "byteOffset" : 6920
        },
        {
            "buffer" : 0,
            "byteLength" : 1152,
            "byteOffset" : 8072
        },
        {
            "buffer" : 0,
            "byteLength" : 768,
            "byteOffset" : 9224
        },
        {
            "buffer" : 0,
            "byteLength" : 336,
            "byteOffset" : 9992
        },
        {
            "buffer" : 0,
            "byteLength" : 6420,
            "byteOffset" : 10328
        },
        {
            "buffer" : 0,
            "byteLength" : 6420,
            "byteOffset" : 16748
        },
        {
            "buffer" : 0,
            "byteLength" : 4280,
            "byteOffset" : 23168
        },
        {
            "buffer" : 0,
            "byteLength" : 3732,
            "byteOffset" : 27448
        },
        {
            "buffer" : 0,
            "byteLength" : 2988,
            "byteOffset" : 31180
        },
        {
            "buffer" : 0,
            "byteLength" : 2988,
            "byteOffset" : 34168
        },
        {
            "buffer" : 0,
            "byteLength" : 1992,
            "byteOffset" : 37156
        },
        {
            "buffer" : 0,
            "byteLength" : 1152,
            "byteOffset" : 39148
        },
        {
            "buffer" : 0,
            "byteLength" : 3720,
            "byteOffset" : 40300
        },
        {
            "buffer" : 0,
            "byteLength" : 3720,
            "byteOffset" : 44020
        },
        {
            "buffer" : 0,
            "byteLength" : 2480,
            "byteOffset" : 47740
        },
        {
            "buffer" : 0,
            "byteLength" : 1296,
            "byteOffset" : 50220
        },
        {
            "buffer" : 0,
            "byteLength" : 2472,
            "byteOffset" : 51516
        },
        {
            "buffer" : 0,
            "byteLength" : 2472,
            "byteOffset" : 53988
        },
        {
            "buffer" : 0,
            "byteLength" : 1648,
            "byteOffset" : 56460
        },
        {
            "buffer" : 0,
            "byteLength" : 1320,
            "byteOffset" : 58108
        },
        {
            "buffer" : 0,
            "byteLength" : 23736,
            "byteOffset" : 59428
        },
        {
            "buffer" : 0,
            "byteLength" : 23736,
            "byteOffset" : 83164
        },
        {
            "buffer" : 0,
            "byteLength" : 15824,
            "byteOffset" : 106900
        },
        {
            "buffer" : 0,
            "byteLength" : 6048,
            "byteOffset" : 122724
        }
    ],
    "samplers" : [
        {
            "magFilter" : 9728,
            "minFilter" : 9984
        }
    ],
    "buffers" : [
        {
            "byteLength" : 128772,
            "uri" : "table.bin"
        }
    ]
}
