{
    "asset" : {
        "generator" : "Khronos glTF Blender I/O v3.2.43",
        "version" : "2.0"
    },
    "scene" : 0,
    "scenes" : [
        {
            "name" : "Scene",
            "nodes" : [
                2,
                5,
                6,
                7,
                8,
                9,
                10
            ]
        }
    ],
    "nodes" : [
        {
            "mesh" : 0,
            "name" : "Cube.004",
            "rotation" : [
                0.5000000596046448,
                -0.4999999403953552,
                0.4999999403953552,
                0.5000000596046448
            ],
            "scale" : [
                0.46860170364379883,
                0.46860170364379883,
                0.4686017632484436
            ],
            "translation" : [
                1.4047621488571167,
                2.2344674732721614e-07,
                1.4482510089874268
            ]
        },
        {
            "children" : [
                0
            ],
            "name" : "Door-L",
            "rotation" : [
                -0.7071068286895752,
                1.0048592410634785e-14,
                -1.0048592410634785e-14,
                0.7071068286895752
            ],
            "translation" : [
                1.831087104164908e-07,
                4.648961748898728e-08,
                0
            ]
        },
        {
            "children" : [
                1
            ],
            "name" : "Armature",
            "rotation" : [
                0,
                0,
                -0.7071066498756409,
                0.70710688829422
            ],
            "scale" : [
                2.1340079307556152,
                2.1340079307556152,
                2.1340081691741943
            ],
            "translation" : [
                -3.0905797481536865,
                2.9977738857269287,
                0
            ]
        },
        {
            "mesh" : 1,
            "name" : "Cube.003",
            "rotation" : [
                -0.5,
                0.4999999403953552,
                0.5000001192092896,
                0.5000000596046448
            ],
            "scale" : [
                0.4686017632484436,
                0.4686017632484436,
                0.46860185265541077
            ],
            "translation" : [
                1.404761791229248,
                -6.878679528199427e-07,
                1.4458353519439697
            ]
        },
        {
            "children" : [
                3
            ],
            "name" : "Door-L",
            "rotation" : [
                -0.7071068286895752,
                -8.403397776083916e-15,
                -3.379102841315944e-15,
                0.7071068286895752
            ],
            "translation" : [
                7.505146015773789e-08,
                3.079515522586007e-07,
                2.358918995467446e-15
            ]
        },
        {
            "children" : [
                4
            ],
            "name" : "Armature.001",
            "rotation" : [
                0.7071068286895752,
                -0.7071068286895752,
                0,
                1.1520234011186403e-07
            ],
            "scale" : [
                2.1340084075927734,
                2.1340084075927734,
                2.1340086460113525
            ],
            "translation" : [
                3.0854239463806152,
                2.9977738857269287,
                0
            ]
        },
        {
            "mesh" : 2,
            "name" : "Cube"
        },
        {
            "mesh" : 3,
            "name" : "Cube.002"
        },
        {
            "mesh" : 4,
            "name" : "Cube.001"
        },
        {
            "mesh" : 5,
            "name" : "Plane.001"
        },
        {
            "mesh" : 6,
            "name" : "Plane.002"
        }
    ],
    "animations" : [
        {
            "channels" : [
                {
                    "sampler" : 0,
                    "target" : {
                        "node" : 1,
                        "path" : "translation"
                    }
                },
                {
                    "sampler" : 1,
                    "target" : {
                        "node" : 1,
                        "path" : "rotation"
                    }
                },
                {
                    "sampler" : 2,
                    "target" : {
                        "node" : 1,
                        "path" : "scale"
                    }
                }
            ],
            "name" : "ArmatureAction",
            "samplers" : [
                {
                    "input" : 27,
                    "interpolation" : "LINEAR",
                    "output" : 28
                },
                {
                    "input" : 27,
                    "interpolation" : "LINEAR",
                    "output" : 29
                },
                {
                    "input" : 27,
                    "interpolation" : "LINEAR",
                    "output" : 30
                }
            ]
        },
        {
            "channels" : [
                {
                    "sampler" : 0,
                    "target" : {
                        "node" : 4,
                        "path" : "translation"
                    }
                },
                {
                    "sampler" : 1,
                    "target" : {
                        "node" : 4,
                        "path" : "rotation"
                    }
                },
                {
                    "sampler" : 2,
                    "target" : {
                        "node" : 4,
                        "path" : "scale"
                    }
                }
            ],
            "name" : "Armature.001Action",
            "samplers" : [
                {
                    "input" : 27,
                    "interpolation" : "LINEAR",
                    "output" : 31
                },
                {
                    "input" : 27,
                    "interpolation" : "LINEAR",
                    "output" : 32
                },
                {
                    "input" : 27,
                    "interpolation" : "LINEAR",
                    "output" : 33
                }
            ]
        }
    ],
    "materials" : [
        {
            "doubleSided" : true,
            "name" : "Material.002",
            "pbrMetallicRoughness" : {
                "baseColorTexture" : {
                    "index" : 0
                }
            }
        },
        {
            "doubleSided" : true,
            "name" : "Material.001",
            "pbrMetallicRoughness" : {
                "baseColorTexture" : {
                    "index" : 1
                }
            }
        },
        {
            "alphaMode" : "BLEND",
            "doubleSided" : true,
            "emissiveFactor" : [
                1,
                1,
                1
            ],
            "emissiveTexture" : {
                "index" : 2
            },
            "name" : "Material.003",
            "pbrMetallicRoughness" : {
                "baseColorTexture" : {
                    "index" : 3
                },
                "metallicFactor" : 0,
                "roughnessFactor" : 0
            }
        }
    ],
    "meshes" : [
        {
            "name" : "Cube.005",
            "primitives" : [
                {
                    "attributes" : {
                        "POSITION" : 0,
                        "NORMAL" : 1,
                        "TEXCOORD_0" : 2
                    },
                    "indices" : 3,
                    "material" : 0
                }
            ]
        },
        {
            "name" : "Cube.001",
            "primitives" : [
                {
                    "attributes" : {
                        "POSITION" : 4,
                        "NORMAL" : 5,
                        "TEXCOORD_0" : 6
                    },
                    "indices" : 7,
                    "material" : 0
                }
            ]
        },
        {
            "name" : "Cube.002",
            "primitives" : [
                {
                    "attributes" : {
                        "POSITION" : 8,
                        "NORMAL" : 9,
                        "TEXCOORD_0" : 10
                    },
                    "indices" : 11,
                    "material" : 1
                }
            ]
        },
        {
            "name" : "Cube.003",
            "primitives" : [
                {
                    "attributes" : {
                        "POSITION" : 12,
                        "NORMAL" : 13,
                        "TEXCOORD_0" : 14
                    },
                    "indices" : 15,
                    "material" : 1
                }
            ]
        },
        {
            "name" : "Cube.004",
            "primitives" : [
                {
                    "attributes" : {
                        "POSITION" : 16,
                        "NORMAL" : 17,
                        "TEXCOORD_0" : 18
                    },
                    "indices" : 19,
                    "material" : 1
                }
            ]
        },
        {
            "name" : "Plane.001",
            "primitives" : [
                {
                    "attributes" : {
                        "POSITION" : 20,
                        "NORMAL" : 21,
                        "TEXCOORD_0" : 22
                    },
                    "indices" : 23,
                    "material" : 2
                }
            ]
        },
        {
            "name" : "Plane.002",
            "primitives" : [
                {
                    "attributes" : {
                        "POSITION" : 24,
                        "NORMAL" : 25,
                        "TEXCOORD_0" : 26
                    },
                    "indices" : 23,
                    "material" : 2
                }
            ]
        }
    ],
    "textures" : [
        {
            "sampler" : 0,
            "source" : 0
        },
        {
            "sampler" : 0,
            "source" : 1
        },
        {
            "sampler" : 1,
            "source" : 2
        },
        {
            "sampler" : 1,
            "source" : 2
        }
    ],
    "images" : [
        {
            "mimeType" : "image/jpeg",
            "name" : "Door",
            "uri" : "Door.jpg"
        },
        {
            "mimeType" : "image/jpeg",
            "name" : "Door frame and station",
            "uri" : "Door%20frame%20and%20station.jpg"
        },
        {
            "mimeType" : "image/png",
            "name" : "Image_0",
            "uri" : "Image_0.png"
        }
    ],
    "skins" : [
        {
            "inverseBindMatrices" : 34,
            "joints" : [
                1
            ],
            "name" : "Armature"
        },
        {
            "inverseBindMatrices" : 35,
            "joints" : [
                4
            ],
            "name" : "Armature.001"
        }
    ],
    "accessors" : [
        {
            "bufferView" : 0,
            "componentType" : 5126,
            "count" : 28,
            "max" : [
                -0.010017037391662598,
                6.148815631866455,
                0.06411728262901306
            ],
            "min" : [
                -3.0897045135498047,
                0.015637993812561035,
                -0.11427279561758041
            ],
            "type" : "VEC3"
        },
        {
            "bufferView" : 1,
            "componentType" : 5126,
            "count" : 28,
            "type" : "VEC3"
        },
        {
            "bufferView" : 2,
            "componentType" : 5126,
            "count" : 28,
            "type" : "VEC2"
        },
        {
            "bufferView" : 3,
            "componentType" : 5123,
            "count" : 36,
            "type" : "SCALAR"
        },
        {
            "bufferView" : 4,
            "componentType" : 5126,
            "count" : 24,
            "max" : [
                3.089183807373047,
                6.148815631866455,
                0.06411660462617874
            ],
            "min" : [
                0.009496212005615234,
                0.015637993812561035,
                -0.11427246779203415
            ],
            "type" : "VEC3"
        },
        {
            "bufferView" : 5,
            "componentType" : 5126,
            "count" : 24,
            "type" : "VEC3"
        },
        {
            "bufferView" : 6,
            "componentType" : 5126,
            "count" : 24,
            "type" : "VEC2"
        },
        {
            "bufferView" : 7,
            "componentType" : 5123,
            "count" : 36,
            "type" : "SCALAR"
        },
        {
            "bufferView" : 8,
            "componentType" : 5126,
            "count" : 291,
            "max" : [
                4.400000095367432,
                7,
                0.5468789339065552
            ],
            "min" : [
                -4.400000095367432,
                0,
                -0.5468789339065552
            ],
            "type" : "VEC3"
        },
        {
            "bufferView" : 9,
            "componentType" : 5126,
            "count" : 291,
            "type" : "VEC3"
        },
        {
            "bufferView" : 10,
            "componentType" : 5126,
            "count" : 291,
            "type" : "VEC2"
        },
        {
            "bufferView" : 11,
            "componentType" : 5123,
            "count" : 483,
            "type" : "SCALAR"
        },
        {
            "bufferView" : 12,
            "componentType" : 5126,
            "count" : 50,
            "max" : [
                3.9656004905700684,
                4.030156135559082,
                -0.5468815565109253
            ],
            "min" : [
                3.0492448806762695,
                2.7065906524658203,
                -0.8209055066108704
            ],
            "type" : "VEC3"
        },
        {
            "bufferView" : 13,
            "componentType" : 5126,
            "count" : 50,
            "type" : "VEC3"
        },
        {
            "bufferView" : 14,
            "componentType" : 5126,
            "count" : 50,
            "type" : "VEC2"
        },
        {
            "bufferView" : 15,
            "componentType" : 5123,
            "count" : 54,
            "type" : "SCALAR"
        },
        {
            "bufferView" : 16,
            "componentType" : 5126,
            "count" : 50,
            "max" : [
                -3.0492446422576904,
                4.030156135559082,
                0.8209068179130554
            ],
            "min" : [
                -3.9656002521514893,
                2.7065906524658203,
                0.5468825697898865
            ],
            "type" : "VEC3"
        },
        {
            "bufferView" : 17,
            "componentType" : 5126,
            "count" : 50,
            "type" : "VEC3"
        },
        {
            "bufferView" : 18,
            "componentType" : 5126,
            "count" : 50,
            "type" : "VEC2"
        },
        {
            "bufferView" : 19,
            "componentType" : 5123,
            "count" : 54,
            "type" : "SCALAR"
        },
        {
            "bufferView" : 20,
            "componentType" : 5126,
            "count" : 8,
            "max" : [
                -3.3901233673095703,
                3.475318193435669,
                0.9042717814445496
            ],
            "min" : [
                -3.6709747314453125,
                3.1944665908813477,
                0.6234202980995178
            ],
            "type" : "VEC3"
        },
        {
            "bufferView" : 21,
            "componentType" : 5126,
            "count" : 8,
            "type" : "VEC3"
        },
        {
            "bufferView" : 22,
            "componentType" : 5126,
            "count" : 8,
            "type" : "VEC2"
        },
        {
            "bufferView" : 23,
            "componentType" : 5123,
            "count" : 12,
            "type" : "SCALAR"
        },
        {
            "bufferView" : 24,
            "componentType" : 5126,
            "count" : 8,
            "max" : [
                3.628410577774048,
                3.471778154373169,
                -0.6440633535385132
            ],
            "min" : [
                3.3475592136383057,
                3.1909265518188477,
                -0.9249148368835449
            ],
            "type" : "VEC3"
        },
        {
            "bufferView" : 25,
            "componentType" : 5126,
            "count" : 8,
            "type" : "VEC3"
        },
        {
            "bufferView" : 26,
            "componentType" : 5126,
            "count" : 8,
            "type" : "VEC2"
        },
        {
            "bufferView" : 27,
            "componentType" : 5126,
            "count" : 41,
            "max" : [
                1.6666666666666667
            ],
            "min" : [
                0
            ],
            "type" : "SCALAR"
        },
        {
            "bufferView" : 28,
            "componentType" : 5126,
            "count" : 41,
            "type" : "VEC3"
        },
        {
            "bufferView" : 29,
            "componentType" : 5126,
            "count" : 41,
            "type" : "VEC4"
        },
        {
            "bufferView" : 30,
            "componentType" : 5126,
            "count" : 41,
            "type" : "VEC3"
        },
        {
            "bufferView" : 31,
            "componentType" : 5126,
            "count" : 41,
            "type" : "VEC3"
        },
        {
            "bufferView" : 32,
            "componentType" : 5126,
            "count" : 41,
            "type" : "VEC4"
        },
        {
            "bufferView" : 33,
            "componentType" : 5126,
            "count" : 41,
            "type" : "VEC3"
        },
        {
            "bufferView" : 34,
            "componentType" : 5126,
            "count" : 1,
            "type" : "MAT4"
        },
        {
            "bufferView" : 35,
            "componentType" : 5126,
            "count" : 1,
            "type" : "MAT4"
        }
    ],
    "bufferViews" : [
        {
            "buffer" : 0,
            "byteLength" : 336,
            "byteOffset" : 0
        },
        {
            "buffer" : 0,
            "byteLength" : 336,
            "byteOffset" : 336
        },
        {
            "buffer" : 0,
            "byteLength" : 224,
            "byteOffset" : 672
        },
        {
            "buffer" : 0,
            "byteLength" : 72,
            "byteOffset" : 896
        },
        {
            "buffer" : 0,
            "byteLength" : 288,
            "byteOffset" : 968
        },
        {
            "buffer" : 0,
            "byteLength" : 288,
            "byteOffset" : 1256
        },
        {
            "buffer" : 0,
            "byteLength" : 192,
            "byteOffset" : 1544
        },
        {
            "buffer" : 0,
            "byteLength" : 72,
            "byteOffset" : 1736
        },
        {
            "buffer" : 0,
            "byteLength" : 3492,
            "byteOffset" : 1808
        },
        {
            "buffer" : 0,
            "byteLength" : 3492,
            "byteOffset" : 5300
        },
        {
            "buffer" : 0,
            "byteLength" : 2328,
            "byteOffset" : 8792
        },
        {
            "buffer" : 0,
            "byteLength" : 966,
            "byteOffset" : 11120
        },
        {
            "buffer" : 0,
            "byteLength" : 600,
            "byteOffset" : 12088
        },
        {
            "buffer" : 0,
            "byteLength" : 600,
            "byteOffset" : 12688
        },
        {
            "buffer" : 0,
            "byteLength" : 400,
            "byteOffset" : 13288
        },
        {
            "buffer" : 0,
            "byteLength" : 108,
            "byteOffset" : 13688
        },
        {
            "buffer" : 0,
            "byteLength" : 600,
            "byteOffset" : 13796
        },
        {
            "buffer" : 0,
            "byteLength" : 600,
            "byteOffset" : 14396
        },
        {
            "buffer" : 0,
            "byteLength" : 400,
            "byteOffset" : 14996
        },
        {
            "buffer" : 0,
            "byteLength" : 108,
            "byteOffset" : 15396
        },
        {
            "buffer" : 0,
            "byteLength" : 96,
            "byteOffset" : 15504
        },
        {
            "buffer" : 0,
            "byteLength" : 96,
            "byteOffset" : 15600
        },
        {
            "buffer" : 0,
            "byteLength" : 64,
            "byteOffset" : 15696
        },
        {
            "buffer" : 0,
            "byteLength" : 24,
            "byteOffset" : 15760
        },
        {
            "buffer" : 0,
            "byteLength" : 96,
            "byteOffset" : 15784
        },
        {
            "buffer" : 0,
            "byteLength" : 96,
            "byteOffset" : 15880
        },
        {
            "buffer" : 0,
            "byteLength" : 64,
            "byteOffset" : 15976
        },
        {
            "buffer" : 0,
            "byteLength" : 164,
            "byteOffset" : 16040
        },
        {
            "buffer" : 0,
            "byteLength" : 492,
            "byteOffset" : 16204
        },
        {
            "buffer" : 0,
            "byteLength" : 656,
            "byteOffset" : 16696
        },
        {
            "buffer" : 0,
            "byteLength" : 492,
            "byteOffset" : 17352
        },
        {
            "buffer" : 0,
            "byteLength" : 492,
            "byteOffset" : 17844
        },
        {
            "buffer" : 0,
            "byteLength" : 656,
            "byteOffset" : 18336
        },
        {
            "buffer" : 0,
            "byteLength" : 492,
            "byteOffset" : 18992
        },
        {
            "buffer" : 0,
            "byteLength" : 64,
            "byteOffset" : 19484
        },
        {
            "buffer" : 0,
            "byteLength" : 64,
            "byteOffset" : 19548
        }
    ],
    "samplers" : [
        {
            "magFilter" : 9729,
            "minFilter" : 9987
        },
        {
            "magFilter" : 9728,
            "minFilter" : 9984
        }
    ],
    "buffers" : [
        {
            "byteLength" : 19612,
            "uri" : "Passage_Door.bin"
        }
    ]
}
