{
    "asset" : {
        "generator" : "Khronos glTF Blender I/O v3.2.43",
        "version" : "2.0"
    },
    "scene" : 0,
    "scenes" : [
        {
            "name" : "Scene",
            "nodes" : [
                0,
                1,
                2,
                3,
                4
            ]
        }
    ],
    "nodes" : [
        {
            "mesh" : 0,
            "name" : "room1"
        },
        {
            "mesh" : 1,
            "name" : "room2"
        },
        {
            "mesh" : 2,
            "name" : "hall_x"
        },
        {
            "mesh" : 3,
            "name" : "hall_t"
        },
        {
            "mesh" : 4,
            "name" : "hall_i"
        }
    ],
    "materials" : [
        {
            "doubleSided" : true,
            "name" : "room1",
            "pbrMetallicRoughness" : {
                "baseColorTexture" : {
                    "index" : 0
                },
                "metallicFactor" : 0
            }
        }
    ],
    "meshes" : [
        {
            "name" : "room1_mesh.003",
            "primitives" : [
                {
                    "attributes" : {
                        "POSITION" : 0,
                        "NORMAL" : 1,
                        "TEXCOORD_0" : 2
                    },
                    "indices" : 3,
                    "material" : 0
                }
            ]
        },
        {
            "name" : "room1_mesh.005",
            "primitives" : [
                {
                    "attributes" : {
                        "POSITION" : 4,
                        "NORMAL" : 5,
                        "TEXCOORD_0" : 6
                    },
                    "indices" : 7,
                    "material" : 0
                }
            ]
        },
        {
            "name" : "hall_x_mesh.002",
            "primitives" : [
                {
                    "attributes" : {
                        "POSITION" : 8,
                        "NORMAL" : 9,
                        "TEXCOORD_0" : 10
                    },
                    "indices" : 11,
                    "material" : 0
                }
            ]
        },
        {
            "name" : "hall_x_mesh.001",
            "primitives" : [
                {
                    "attributes" : {
                        "POSITION" : 12,
                        "NORMAL" : 13,
                        "TEXCOORD_0" : 14
                    },
                    "indices" : 15,
                    "material" : 0
                }
            ]
        },
        {
            "name" : "hall_x_mesh.003",
            "primitives" : [
                {
                    "attributes" : {
                        "POSITION" : 16,
                        "NORMAL" : 17,
                        "TEXCOORD_0" : 18
                    },
                    "indices" : 19,
                    "material" : 0
                }
            ]
        }
    ],
    "textures" : [
        {
            "sampler" : 0,
            "source" : 0
        }
    ],
    "images" : [
        {
            "mimeType" : "image/jpeg",
            "name" : "Big Room A",
            "uri" : "Big%20Room%20A.jpg"
        }
    ],
    "accessors" : [
        {
            "bufferView" : 0,
            "componentType" : 5126,
            "count" : 258,
            "max" : [
                4.599999904632568,
                1.5,
                4.5
            ],
            "min" : [
                -4.599999904632568,
                -1.5,
                -4.5
            ],
            "type" : "VEC3"
        },
        {
            "bufferView" : 1,
            "componentType" : 5126,
            "count" : 258,
            "type" : "VEC3"
        },
        {
            "bufferView" : 2,
            "componentType" : 5126,
            "count" : 258,
            "type" : "VEC2"
        },
        {
            "bufferView" : 3,
            "componentType" : 5123,
            "count" : 390,
            "type" : "SCALAR"
        },
        {
            "bufferView" : 4,
            "componentType" : 5126,
            "count" : 262,
            "max" : [
                4.599999904632568,
                1.5,
                4.5
            ],
            "min" : [
                -4.599999904632568,
                -1.5,
                -4.5
            ],
            "type" : "VEC3"
        },
        {
            "bufferView" : 5,
            "componentType" : 5126,
            "count" : 262,
            "type" : "VEC3"
        },
        {
            "bufferView" : 6,
            "componentType" : 5126,
            "count" : 262,
            "type" : "VEC2"
        },
        {
            "bufferView" : 7,
            "componentType" : 5123,
            "count" : 396,
            "type" : "SCALAR"
        },
        {
            "bufferView" : 8,
            "componentType" : 5126,
            "count" : 280,
            "max" : [
                4.5,
                1,
                4.5
            ],
            "min" : [
                -4.5,
                -1.5,
                -4.5
            ],
            "type" : "VEC3"
        },
        {
            "bufferView" : 9,
            "componentType" : 5126,
            "count" : 280,
            "type" : "VEC3"
        },
        {
            "bufferView" : 10,
            "componentType" : 5126,
            "count" : 280,
            "type" : "VEC2"
        },
        {
            "bufferView" : 11,
            "componentType" : 5123,
            "count" : 348,
            "type" : "SCALAR"
        },
        {
            "bufferView" : 12,
            "componentType" : 5126,
            "count" : 214,
            "max" : [
                4.5,
                1,
                4.5
            ],
            "min" : [
                -4.5,
                -1.5,
                -1.5099999904632568
            ],
            "type" : "VEC3"
        },
        {
            "bufferView" : 13,
            "componentType" : 5126,
            "count" : 214,
            "type" : "VEC3"
        },
        {
            "bufferView" : 14,
            "componentType" : 5126,
            "count" : 214,
            "type" : "VEC2"
        },
        {
            "bufferView" : 15,
            "componentType" : 5123,
            "count" : 276,
            "type" : "SCALAR"
        },
        {
            "bufferView" : 16,
            "componentType" : 5126,
            "count" : 179,
            "max" : [
                1.510000228881836,
                1,
                4.5
            ],
            "min" : [
                -1.510000228881836,
                -1.5,
                -4.5
            ],
            "type" : "VEC3"
        },
        {
            "bufferView" : 17,
            "componentType" : 5126,
            "count" : 179,
            "type" : "VEC3"
        },
        {
            "bufferView" : 18,
            "componentType" : 5126,
            "count" : 179,
            "type" : "VEC2"
        },
        {
            "bufferView" : 19,
            "componentType" : 5123,
            "count" : 204,
            "type" : "SCALAR"
        }
    ],
    "bufferViews" : [
        {
            "buffer" : 0,
            "byteLength" : 3096,
            "byteOffset" : 0
        },
        {
            "buffer" : 0,
            "byteLength" : 3096,
            "byteOffset" : 3096
        },
        {
            "buffer" : 0,
            "byteLength" : 2064,
            "byteOffset" : 6192
        },
        {
            "buffer" : 0,
            "byteLength" : 780,
            "byteOffset" : 8256
        },
        {
            "buffer" : 0,
            "byteLength" : 3144,
            "byteOffset" : 9036
        },
        {
            "buffer" : 0,
            "byteLength" : 3144,
            "byteOffset" : 12180
        },
        {
            "buffer" : 0,
            "byteLength" : 2096,
            "byteOffset" : 15324
        },
        {
            "buffer" : 0,
            "byteLength" : 792,
            "byteOffset" : 17420
        },
        {
            "buffer" : 0,
            "byteLength" : 3360,
            "byteOffset" : 18212
        },
        {
            "buffer" : 0,
            "byteLength" : 3360,
            "byteOffset" : 21572
        },
        {
            "buffer" : 0,
            "byteLength" : 2240,
            "byteOffset" : 24932
        },
        {
            "buffer" : 0,
            "byteLength" : 696,
            "byteOffset" : 27172
        },
        {
            "buffer" : 0,
            "byteLength" : 2568,
            "byteOffset" : 27868
        },
        {
            "buffer" : 0,
            "byteLength" : 2568,
            "byteOffset" : 30436
        },
        {
            "buffer" : 0,
            "byteLength" : 1712,
            "byteOffset" : 33004
        },
        {
            "buffer" : 0,
            "byteLength" : 552,
            "byteOffset" : 34716
        },
        {
            "buffer" : 0,
            "byteLength" : 2148,
            "byteOffset" : 35268
        },
        {
            "buffer" : 0,
            "byteLength" : 2148,
            "byteOffset" : 37416
        },
        {
            "buffer" : 0,
            "byteLength" : 1432,
            "byteOffset" : 39564
        },
        {
            "buffer" : 0,
            "byteLength" : 408,
            "byteOffset" : 40996
        }
    ],
    "samplers" : [
        {
            "magFilter" : 9728,
            "minFilter" : 9984
        }
    ],
    "buffers" : [
        {
            "byteLength" : 41404,
            "uri" : "moon_base.bin"
        }
    ]
}
