{
    "asset" : {
        "generator" : "Khronos glTF Blender I/O v3.2.43",
        "version" : "2.0"
    },
    "scene" : 0,
    "scenes" : [
        {
            "name" : "Scene",
            "nodes" : [
                0,
                1,
                2,
                3,
                4
            ]
        }
    ],
    "nodes" : [
        {
            "mesh" : 0,
            "name" : "room1"
        },
        {
            "mesh" : 1,
            "name" : "hall_x"
        },
        {
            "mesh" : 2,
            "name" : "hall_t"
        },
        {
            "mesh" : 3,
            "name" : "hall_i"
        },
        {
            "mesh" : 4,
            "name" : "room2"
        }
    ],
    "materials" : [
        {
            "name" : "room1",
            "normalTexture" : {
                "index" : 0
            },
            "pbrMetallicRoughness" : {
                "baseColorTexture" : {
                    "index" : 1
                },
                "metallicFactor" : 0.5,
                "metallicRoughnessTexture" : {
                    "index" : 2
                }
            }
        },
        {
            "name" : "hall_x",
            "normalTexture" : {
                "index" : 3
            },
            "pbrMetallicRoughness" : {
                "baseColorTexture" : {
                    "index" : 4
                },
                "metallicFactor" : 0.5,
                "metallicRoughnessTexture" : {
                    "index" : 5
                }
            }
        }
    ],
    "meshes" : [
        {
            "name" : "room1_mesh",
            "primitives" : [
                {
                    "attributes" : {
                        "POSITION" : 0,
                        "NORMAL" : 1,
                        "TEXCOORD_0" : 2
                    },
                    "indices" : 3,
                    "material" : 0
                }
            ]
        },
        {
            "name" : "hall_x_mesh",
            "primitives" : [
                {
                    "attributes" : {
                        "POSITION" : 4,
                        "NORMAL" : 5,
                        "TEXCOORD_0" : 6
                    },
                    "indices" : 7,
                    "material" : 1
                }
            ]
        },
        {
            "name" : "hall_x_mesh.001",
            "primitives" : [
                {
                    "attributes" : {
                        "POSITION" : 8,
                        "NORMAL" : 9,
                        "TEXCOORD_0" : 10
                    },
                    "indices" : 11,
                    "material" : 1
                }
            ]
        },
        {
            "name" : "hall_x_mesh.003",
            "primitives" : [
                {
                    "attributes" : {
                        "POSITION" : 12,
                        "NORMAL" : 13,
                        "TEXCOORD_0" : 14
                    },
                    "indices" : 15,
                    "material" : 1
                }
            ]
        },
        {
            "name" : "room1_mesh.001",
            "primitives" : [
                {
                    "attributes" : {
                        "POSITION" : 16,
                        "NORMAL" : 17,
                        "TEXCOORD_0" : 18
                    },
                    "indices" : 19,
                    "material" : 0
                }
            ]
        }
    ],
    "textures" : [
        {
            "sampler" : 0,
            "source" : 0
        },
        {
            "sampler" : 0,
            "source" : 1
        },
        {
            "sampler" : 0,
            "source" : 2
        },
        {
            "sampler" : 0,
            "source" : 3
        },
        {
            "sampler" : 0,
            "source" : 4
        },
        {
            "sampler" : 0,
            "source" : 5
        }
    ],
    "images" : [
        {
            "mimeType" : "image/png",
            "name" : "room1_normal",
            "uri" : "room1_normal.png"
        },
        {
            "mimeType" : "image/png",
            "name" : "room1_color",
            "uri" : "room1_color.png"
        },
        {
            "mimeType" : "image/png",
            "name" : "room1_rough",
            "uri" : "room1_rough.png"
        },
        {
            "mimeType" : "image/png",
            "name" : "hall_x_normal",
            "uri" : "hall_x_normal.png"
        },
        {
            "mimeType" : "image/png",
            "name" : "hall_x_color",
            "uri" : "hall_x_color.png"
        },
        {
            "mimeType" : "image/png",
            "name" : "hall_x_rough",
            "uri" : "hall_x_rough.png"
        }
    ],
    "accessors" : [
        {
            "bufferView" : 0,
            "componentType" : 5126,
            "count" : 260,
            "max" : [
                4.599999904632568,
                1.5,
                4.5
            ],
            "min" : [
                -4.599999904632568,
                -1.5,
                -4.5
            ],
            "type" : "VEC3"
        },
        {
            "bufferView" : 1,
            "componentType" : 5126,
            "count" : 260,
            "type" : "VEC3"
        },
        {
            "bufferView" : 2,
            "componentType" : 5126,
            "count" : 260,
            "type" : "VEC2"
        },
        {
            "bufferView" : 3,
            "componentType" : 5123,
            "count" : 390,
            "type" : "SCALAR"
        },
        {
            "bufferView" : 4,
            "componentType" : 5126,
            "count" : 280,
            "max" : [
                4.5,
                1,
                4.5
            ],
            "min" : [
                -4.5,
                -1.5,
                -4.5
            ],
            "type" : "VEC3"
        },
        {
            "bufferView" : 5,
            "componentType" : 5126,
            "count" : 280,
            "type" : "VEC3"
        },
        {
            "bufferView" : 6,
            "componentType" : 5126,
            "count" : 280,
            "type" : "VEC2"
        },
        {
            "bufferView" : 7,
            "componentType" : 5123,
            "count" : 348,
            "type" : "SCALAR"
        },
        {
            "bufferView" : 8,
            "componentType" : 5126,
            "count" : 220,
            "max" : [
                4.5,
                1,
                4.5
            ],
            "min" : [
                -4.5,
                -1.5,
                -1.5099999904632568
            ],
            "type" : "VEC3"
        },
        {
            "bufferView" : 9,
            "componentType" : 5126,
            "count" : 220,
            "type" : "VEC3"
        },
        {
            "bufferView" : 10,
            "componentType" : 5126,
            "count" : 220,
            "type" : "VEC2"
        },
        {
            "bufferView" : 11,
            "componentType" : 5123,
            "count" : 276,
            "type" : "SCALAR"
        },
        {
            "bufferView" : 12,
            "componentType" : 5126,
            "count" : 194,
            "max" : [
                1.510000228881836,
                1,
                4.5
            ],
            "min" : [
                -1.510000228881836,
                -1.5,
                -4.5
            ],
            "type" : "VEC3"
        },
        {
            "bufferView" : 13,
            "componentType" : 5126,
            "count" : 194,
            "type" : "VEC3"
        },
        {
            "bufferView" : 14,
            "componentType" : 5126,
            "count" : 194,
            "type" : "VEC2"
        },
        {
            "bufferView" : 15,
            "componentType" : 5123,
            "count" : 204,
            "type" : "SCALAR"
        },
        {
            "bufferView" : 16,
            "componentType" : 5126,
            "count" : 258,
            "max" : [
                4.599999904632568,
                1.5,
                4.5
            ],
            "min" : [
                -4.599999904632568,
                -1.5,
                -4.5
            ],
            "type" : "VEC3"
        },
        {
            "bufferView" : 17,
            "componentType" : 5126,
            "count" : 258,
            "type" : "VEC3"
        },
        {
            "bufferView" : 18,
            "componentType" : 5126,
            "count" : 258,
            "type" : "VEC2"
        },
        {
            "bufferView" : 19,
            "componentType" : 5123,
            "count" : 396,
            "type" : "SCALAR"
        }
    ],
    "bufferViews" : [
        {
            "buffer" : 0,
            "byteLength" : 3120,
            "byteOffset" : 0
        },
        {
            "buffer" : 0,
            "byteLength" : 3120,
            "byteOffset" : 3120
        },
        {
            "buffer" : 0,
            "byteLength" : 2080,
            "byteOffset" : 6240
        },
        {
            "buffer" : 0,
            "byteLength" : 780,
            "byteOffset" : 8320
        },
        {
            "buffer" : 0,
            "byteLength" : 3360,
            "byteOffset" : 9100
        },
        {
            "buffer" : 0,
            "byteLength" : 3360,
            "byteOffset" : 12460
        },
        {
            "buffer" : 0,
            "byteLength" : 2240,
            "byteOffset" : 15820
        },
        {
            "buffer" : 0,
            "byteLength" : 696,
            "byteOffset" : 18060
        },
        {
            "buffer" : 0,
            "byteLength" : 2640,
            "byteOffset" : 18756
        },
        {
            "buffer" : 0,
            "byteLength" : 2640,
            "byteOffset" : 21396
        },
        {
            "buffer" : 0,
            "byteLength" : 1760,
            "byteOffset" : 24036
        },
        {
            "buffer" : 0,
            "byteLength" : 552,
            "byteOffset" : 25796
        },
        {
            "buffer" : 0,
            "byteLength" : 2328,
            "byteOffset" : 26348
        },
        {
            "buffer" : 0,
            "byteLength" : 2328,
            "byteOffset" : 28676
        },
        {
            "buffer" : 0,
            "byteLength" : 1552,
            "byteOffset" : 31004
        },
        {
            "buffer" : 0,
            "byteLength" : 408,
            "byteOffset" : 32556
        },
        {
            "buffer" : 0,
            "byteLength" : 3096,
            "byteOffset" : 32964
        },
        {
            "buffer" : 0,
            "byteLength" : 3096,
            "byteOffset" : 36060
        },
        {
            "buffer" : 0,
            "byteLength" : 2064,
            "byteOffset" : 39156
        },
        {
            "buffer" : 0,
            "byteLength" : 792,
            "byteOffset" : 41220
        }
    ],
    "samplers" : [
        {
            "magFilter" : 9729,
            "minFilter" : 9987
        }
    ],
    "buffers" : [
        {
            "byteLength" : 42012,
            "uri" : "moon_base.bin"
        }
    ]
}
